<svg width="75" height="100" viewBox="0 0 75 100" fill="none" xmlns="http://www.w3.org/2000/svg">
<rect width="75" height="100" rx="10" fill="#E8EAEC"/>
<path d="M5 19C5 16.2386 7.23858 14 10 14H65C67.7614 14 70 16.2386 70 19V31C70 33.7614 67.7614 36 65 36H10C7.23858 36 5 33.7614 5 31V19Z" fill="#00A349"/>
<rect x="5" y="45" width="16" height="13" rx="5" fill="#00A349"/>
<rect x="53" y="67" width="16" height="13" rx="5" fill="#00A349"/>
<rect x="29" y="67" width="16" height="13" rx="5" fill="#00A349"/>
<rect x="5" y="67" width="16" height="13" rx="5" fill="#00A349"/>
<rect x="53" y="45" width="16" height="13" rx="5" fill="#00A349"/>
<rect x="29" y="45" width="16" height="13" rx="5" fill="#00A349"/>
</svg>
